<?xml version="1.0" standalone="no"?><svg xmlns:xlink="http://www.w3.org/1999/xlink" xmlns="http://www.w3.org/2000/svg" viewBox="0 0 3840 3141.852226656551" preserveAspectRatio="xMaxYMax slice"><g transform="scale(4.863548338477633)"><rect x="0" y="0" width="789.5555555555554" height="646" fill="#ffffff"/><rect x="0" y="0" width="71.78" height="71.78" fill="#f4f6fe"/><path d="M 0 71.78 A 71.78 71.78 0 0 1  71.78 0 L 71.78 71.78L0 71.78" fill="#ffa3b9"/><rect x="71.77777777777777" y="0" width="71.77777777777777" height="71.77777777777777" fill="#ffffff"/><rect x="71.78" y="0" width="35.89" height="35.89" fill="#fff4f7"/><polygon points="107.67,0 107.67,35.89 71.78,35.89" fill="#4f6de8"/><rect x="107.67" y="0" width="35.89" height="35.89" fill="#e4e9fb"/><polygon points="107.67,0 143.56,35.89 107.67,35.89" fill="#ff3867"/><rect x="71.78" y="35.89" width="35.89" height="35.89" fill="#ff557d"/><polygon points="71.78,35.89 107.67,35.89 107.67,71.78" fill="#e5e9fc"/><rect x="107.67" y="35.89" width="35.89" height="35.89" fill="#cfd7f9"/><polygon points="107.67,35.89 143.56,35.89 107.67,71.78" fill="#ffacc0"/><rect x="143.55555555555554" y="0" width="71.77777777777777" height="71.77777777777777" fill="#ffffff"/><rect x="143.56" y="0" width="35.89" height="35.89" fill="#8196ef"/><polygon points="179.45,0 179.45,35.89 143.56,35.89" fill="#ff678b"/><rect x="179.44" y="0" width="35.89" height="35.89" fill="#dee4fb"/><polygon points="179.44,0 215.32999999999998,35.89 179.44,35.89" fill="#fff8f9"/><rect x="143.56" y="35.89" width="35.89" height="35.89" fill="#ffc7d4"/><polygon points="143.56,35.89 179.45,35.89 143.56,71.78" fill="#ff9cb4"/><rect x="179.44" y="35.89" width="35.89" height="35.89" fill="#ffc7d5"/><polygon points="179.44,35.89 215.32999999999998,35.89 215.32999999999998,71.78" fill="#ffb1c3"/><rect x="215.33" y="0" width="71.78" height="71.78" fill="#ffd9e2"/><path d="M 215.33 0 A 71.78 71.78 0 0 0 287.11 71.78 L 287.11 0L215.33 0" fill="#d3daf9"/><rect x="287.1111111111111" y="0" width="71.77777777777777" height="71.77777777777777" fill="#ffffff"/><rect x="287.11" y="0" width="35.89" height="35.89" fill="#ebeefc"/><polygon points="323,0 323,35.89 287.11,35.89" fill="#a7b6f4"/><rect x="323" y="0" width="35.89" height="35.89" fill="#7c92ee"/><polygon points="323,0 358.89,35.89 323,35.89" fill="#5975e9"/><rect x="287.11" y="35.89" width="35.89" height="35.89" fill="#4363e7"/><polygon points="287.11,35.89 323,35.89 287.11,71.78" fill="#ffced9"/><rect x="323" y="35.89" width="35.89" height="35.89" fill="#ff7596"/><polygon points="323,35.89 358.89,35.89 358.89,71.78" fill="#ff7b9a"/><rect x="358.89" y="0" width="71.78" height="71.78" fill="#ff8aa6"/><polygon points="358.89,0 430.66999999999996,0 358.89,71.78" fill="#ffd0db"/><rect x="430.66666666666663" y="0" width="71.77777777777777" height="71.77777777777777" fill="#ffffff"/><rect x="430.67" y="0" width="35.89" height="35.89" fill="#1c42e2"/><circle cx="448.615" cy="17.945" r="17.945" fill="#ffa4ba"/><rect x="466.56" y="0" width="35.89" height="35.89" fill="#ffccd8"/><rect x="466.56" y="0" width="35.89" height="35.89" fill="#b3c0f5"/><rect x="430.67" y="35.89" width="35.89" height="35.89" fill="#abb9f4"/><circle cx="448.615" cy="53.835" r="17.945" fill="#99aaf2"/><rect x="466.56" y="35.89" width="35.89" height="35.89" fill="#ffccd8"/><rect x="466.56" y="35.89" width="35.89" height="35.89" fill="#ff6d8f"/><rect x="502.44" y="0" width="71.78" height="71.78" fill="#ff406d"/><polygon points="574.22,0 574.22,71.78 502.44,71.78" fill="#ff9ab2"/><rect x="574.22" y="0" width="71.78" height="71.78" fill="#4a68e7"/><rect x="574.22" y="0" width="71.78" height="71.78" fill="#ff3f6d"/><rect x="646" y="0" width="71.77777777777777" height="71.77777777777777" fill="#ffffff"/><rect x="646" y="0" width="35.89" height="35.89" fill="#ff6489"/><path d="M 646 35.89 A 35.89 35.89 0 0 1 681.89 0 L 681.89 8.9725 A 26.9175 26.9175 0 0 0 654.9725 35.89" fill="#ffd2dc"/><rect x="681.89" y="0" width="35.89" height="35.89" fill="#ffced9"/><path d="M 681.89 0 A 35.89 35.89 0 0 1 717.78 35.89 L 708.8075 35.89 A 26.9175 26.9175 0 0 0 681.89 8.9725" fill="#feffff"/><rect x="646" y="35.89" width="35.89" height="35.89" fill="#ffe1e8"/><path d="M 646 35.89 A 35.89 35.89 0 0 0 681.89 71.78 L 681.89 62.807500000000005 A 26.9175 26.9175 0 0 1 654.9725 35.89" fill="#7d93ee"/><rect x="681.89" y="35.89" width="35.89" height="35.89" fill="#ffdae3"/><path d="M 681.89 71.78 A 35.89 35.89 0 0 0 717.78 35.89 L 708.8075 35.89 A 26.9175 26.9175 0 0 1 681.89 62.807500000000005" fill="#ffaec1"/><rect x="717.7777777777777" y="0" width="71.77777777777777" height="71.77777777777777" fill="#ffffff"/><rect x="717.78" y="0" width="35.89" height="35.89" fill="#ffd9e2"/><polygon points="753.67,0 753.67,35.89 717.78,35.89" fill="#ffaec1"/><rect x="753.67" y="0" width="35.89" height="35.89" fill="#fff5f7"/><polygon points="753.67,0 789.56,0 753.67,35.89" fill="#3355e4"/><rect x="717.78" y="35.89" width="35.89" height="35.89" fill="#6881eb"/><polygon points="717.78,35.89 753.67,35.89 753.67,71.78" fill="#ffbecd"/><rect x="753.67" y="35.89" width="35.89" height="35.89" fill="#e0e5fb"/><polygon points="753.67,35.89 789.56,71.78 753.67,71.78" fill="#ffe3e9"/><rect x="0" y="71.78" width="71.78" height="71.78" fill="#ffcfdb"/><rect x="0" y="71.78" width="71.78" height="71.78" fill="#ffcbd8"/><rect x="71.77777777777777" y="71.77777777777777" width="71.77777777777777" height="71.77777777777777" fill="#ffffff"/><rect x="71.78" y="71.78" width="35.89" height="35.89" fill="#f5f6fe"/><polygon points="107.67,71.78 107.67,107.67 71.78,107.67" fill="#ffbccc"/><rect x="107.67" y="71.78" width="35.89" height="35.89" fill="#e2e7fb"/><polygon points="107.67,71.78 143.56,107.67 107.67,107.67" fill="#8da0f0"/><rect x="71.78" y="107.67" width="35.89" height="35.89" fill="#edf0fd"/><polygon points="71.78,107.67 107.67,107.67 107.67,143.56" fill="#ffc5d3"/><rect x="107.67" y="107.67" width="35.89" height="35.89" fill="#ffeaef"/><polygon points="107.67,107.67 143.56,107.67 107.67,143.56" fill="#ff698d"/><rect x="143.56" y="71.78" width="71.78" height="71.78" fill="#7189ed"/><polygon points="215.34,71.78 215.34,143.56 143.56,143.56" fill="#2b4ee3"/><rect x="215.33333333333331" y="71.77777777777777" width="71.77777777777777" height="71.77777777777777" fill="#ffffff"/><rect x="215.33" y="71.78" width="35.89" height="35.89" fill="#ff416f"/><path d="M 215.33 107.67 A 35.89 35.89 0 0 1 251.22000000000003 71.78 L 251.22000000000003 80.7525 A 26.9175 26.9175 0 0 0 224.3025 107.67" fill="#b9c5f6"/><rect x="251.22" y="71.78" width="35.89" height="35.89" fill="#ff809e"/><path d="M 251.22 71.78 A 35.89 35.89 0 0 1 287.11 107.67 L 278.1375 107.67 A 26.9175 26.9175 0 0 0 251.22 80.7525" fill="#fffeff"/><rect x="215.33" y="107.67" width="35.89" height="35.89" fill="#ff5a81"/><path d="M 215.33 107.67 A 35.89 35.89 0 0 0 251.22000000000003 143.56 L 251.22000000000003 134.5875 A 26.9175 26.9175 0 0 1 224.3025 107.67" fill="#7990ee"/><rect x="251.22" y="107.67" width="35.89" height="35.89" fill="#ff4874"/><path d="M 251.22 143.56 A 35.89 35.89 0 0 0 287.11 107.67 L 278.1375 107.67 A 26.9175 26.9175 0 0 1 251.22 134.5875" fill="#607bea"/><rect x="287.11" y="71.78" width="71.78" height="71.78" fill="#ff819f"/><path d="M 287.11 71.78 A 71.78 71.78 0 0 1 358.89 143.56 L 287.11 143.56L287.11 71.78" fill="#ffc2d1"/><rect x="358.89" y="71.78" width="71.78" height="71.78" fill="#fffdfe"/><polygon points="358.89,71.78 430.66999999999996,71.78 430.66999999999996,143.56" fill="#284de3"/><rect x="430.66666666666663" y="71.77777777777777" width="71.77777777777777" height="71.77777777777777" fill="#ffffff"/><rect x="430.67" y="71.78" width="35.89" height="35.89" fill="#ffbccc"/><polygon points="466.56,71.78 466.56,107.67 430.67,107.67" fill="#ff9ab2"/><rect x="466.56" y="71.78" width="35.89" height="35.89" fill="#afbcf5"/><polygon points="466.56,71.78 502.45,71.78 466.56,107.67" fill="#ffb7c8"/><rect x="430.67" y="107.67" width="35.89" height="35.89" fill="#fdfdff"/><polygon points="430.67,107.67 466.56,107.67 466.56,143.56" fill="#5471e9"/><rect x="466.56" y="107.67" width="35.89" height="35.89" fill="#d9e0fa"/><polygon points="466.56,107.67 502.45,143.56 466.56,143.56" fill="#ff8ca7"/><rect x="502.4444444444444" y="71.77777777777777" width="71.77777777777777" height="71.77777777777777" fill="#ffffff"/><rect x="502.44" y="71.78" width="35.89" height="35.89" fill="#506ee8"/><circle cx="520.385" cy="89.725" r="17.945" fill="#2248e2"/><rect x="538.33" y="71.78" width="35.89" height="35.89" fill="#8499ef"/><rect x="538.33" y="71.78" width="35.89" height="35.89" fill="#ff809e"/><rect x="502.44" y="107.67" width="35.89" height="35.89" fill="#ffcbd7"/><circle cx="520.385" cy="125.61500000000001" r="17.945" fill="#3a5be5"/><rect x="538.33" y="107.67" width="35.89" height="35.89" fill="#ff7696"/><rect x="538.33" y="107.67" width="35.89" height="35.89" fill="#fff9fa"/><rect x="574.22" y="71.78" width="71.78" height="71.78" fill="#ff3f6d"/><path d="M 574.22 71.78 A 71.78 71.78 0 0 1  646 143.56 L 574.22 71.78 A 71.78 71.78 0 0 0 646 143.56" fill="#ff7f9d"/><rect x="646" y="71.77777777777777" width="71.77777777777777" height="71.77777777777777" fill="#ffffff"/><rect x="646" y="71.78" width="35.89" height="35.89" fill="#ffccd8"/><path d="M 646 107.67 A 35.89 35.89 0 0 1  681.89 71.78 L 681.89 107.67L646 107.67" fill="#bdc8f6"/><rect x="681.89" y="71.78" width="35.89" height="35.89" fill="#4262e6"/><path d="M 681.89 71.78 A 35.89 35.89 0 0 1 717.78 107.67 L 681.89 107.67L681.89 71.78" fill="#ffc2d0"/><rect x="646" y="107.67" width="35.89" height="35.89" fill="#ff4a75"/><path d="M 646 107.67 A 35.89 35.89 0 0 0 681.89 143.56 L 681.89 107.67L646 107.67" fill="#c7d0f8"/><rect x="681.89" y="107.67" width="35.89" height="35.89" fill="#ffc1cf"/><path d="M 681.89 143.56 A 35.89 35.89 0 0 0 717.78 107.67 L 681.89 107.67L681.89 143.56" fill="#ff3968"/><rect x="717.7777777777777" y="71.77777777777777" width="71.77777777777777" height="71.77777777777777" fill="#ffffff"/><rect x="717.78" y="71.78" width="35.89" height="35.89" fill="#f8f9fe"/><polygon points="753.67,71.78 753.67,107.67 717.78,107.67" fill="#ff4d77"/><rect x="753.67" y="71.78" width="35.89" height="35.89" fill="#ffb0c3"/><polygon points="753.67,71.78 789.56,71.78 753.67,107.67" fill="#c8d1f8"/><rect x="717.78" y="107.67" width="35.89" height="35.89" fill="#7f95ee"/><polygon points="717.78,107.67 753.67,107.67 753.67,143.56" fill="#97a8f1"/><rect x="753.67" y="107.67" width="35.89" height="35.89" fill="#4867e7"/><polygon points="753.67,107.67 789.56,143.56 753.67,143.56" fill="#eceffd"/><rect x="0" y="143.55555555555554" width="71.77777777777777" height="71.77777777777777" fill="#ffffff"/><rect x="0" y="143.56" width="35.89" height="35.89" fill="#8ea1f0"/><polygon points="35.89,143.56 35.89,179.45 0,179.45" fill="#ff4672"/><rect x="35.89" y="143.56" width="35.89" height="35.89" fill="#9bacf2"/><polygon points="35.89,143.56 71.78,143.56 35.89,179.45" fill="#9bacf2"/><rect x="0" y="179.44" width="35.89" height="35.89" fill="#c2ccf7"/><polygon points="0,179.44 35.89,179.44 35.89,215.32999999999998" fill="#274be3"/><rect x="35.89" y="179.44" width="35.89" height="35.89" fill="#6e86ec"/><polygon points="35.89,179.44 71.78,215.32999999999998 35.89,215.32999999999998" fill="#c8d1f8"/><rect x="71.78" y="143.56" width="71.78" height="71.78" fill="#ffa6bb"/><path d="M 71.78 215.34 A 71.78 71.78 0 0 1  143.56 143.56 L 143.56 215.34L71.78 215.34" fill="#ff426f"/><rect x="143.55555555555554" y="143.55555555555554" width="71.77777777777777" height="71.77777777777777" fill="#ffffff"/><rect x="143.56" y="143.56" width="35.89" height="35.89" fill="#ff96af"/><path d="M 143.56 143.56 A 35.89 35.89 0 0 0 179.45 179.45 L 179.45 143.56L143.56 143.56" fill="#ff94ad"/><rect x="179.44" y="143.56" width="35.89" height="35.89" fill="#dbe1fa"/><path d="M 179.44 179.45 A 35.89 35.89 0 0 0 215.32999999999998 143.56 L 179.44 143.56L179.44 179.45" fill="#ffacc0"/><rect x="143.56" y="179.44" width="35.89" height="35.89" fill="#d5dcfa"/><path d="M 143.56 215.32999999999998 A 35.89 35.89 0 0 1  179.45 179.44 L 179.45 215.32999999999998L143.56 215.32999999999998" fill="#ff6489"/><rect x="179.44" y="179.44" width="35.89" height="35.89" fill="#ff6b8e"/><path d="M 179.44 179.44 A 35.89 35.89 0 0 1 215.32999999999998 215.32999999999998 L 179.44 215.32999999999998L179.44 179.44" fill="#ffd9e2"/><rect x="215.33" y="143.56" width="71.78" height="71.78" fill="#ffd5df"/><polygon points="215.33,143.56 287.11,215.34 215.33,215.34" fill="#ff8ea9"/><rect x="287.1111111111111" y="143.55555555555554" width="71.77777777777777" height="71.77777777777777" fill="#ffffff"/><rect x="287.11" y="143.56" width="35.89" height="35.89" fill="#607bea"/><polygon points="323,143.56 323,179.45 287.11,179.45" fill="#6a83ec"/><rect x="323" y="143.56" width="35.89" height="35.89" fill="#ff5079"/><polygon points="323,143.56 358.89,179.45 323,179.45" fill="#90a2f1"/><rect x="287.11" y="179.44" width="35.89" height="35.89" fill="#6680eb"/><polygon points="287.11,179.44 323,179.44 323,215.32999999999998" fill="#4665e7"/><rect x="323" y="179.44" width="35.89" height="35.89" fill="#ff4c77"/><polygon points="323,179.44 358.89,179.44 323,215.32999999999998" fill="#4c6ae8"/><rect x="358.88888888888886" y="143.55555555555554" width="71.77777777777777" height="71.77777777777777" fill="#ffffff"/><rect x="358.89" y="143.56" width="35.89" height="35.89" fill="#dde3fb"/><path d="M 358.89 179.45 A 35.89 35.89 0 0 0 394.78 143.56 L 358.89 143.56L358.89 179.45" fill="#a2b2f3"/><rect x="394.78" y="143.56" width="35.89" height="35.89" fill="#ffe4ea"/><path d="M 394.78 143.56 A 35.89 35.89 0 0 0 430.66999999999996 179.45 L 430.66999999999996 143.56L394.78 143.56" fill="#ff9eb5"/><rect x="358.89" y="179.44" width="35.89" height="35.89" fill="#ff3867"/><path d="M 358.89 179.44 A 35.89 35.89 0 0 1 394.78 215.32999999999998 L 358.89 215.32999999999998L358.89 179.44" fill="#f1f3fd"/><rect x="394.78" y="179.44" width="35.89" height="35.89" fill="#e2e7fb"/><path d="M 394.78 215.32999999999998 A 35.89 35.89 0 0 1  430.66999999999996 179.44 L 430.66999999999996 215.32999999999998L394.78 215.32999999999998" fill="#dce2fa"/><rect x="430.67" y="143.56" width="71.78" height="71.78" fill="#6881eb"/><polygon points="430.67,143.56 502.45000000000005,143.56 502.45000000000005,215.34" fill="#385ae5"/><rect x="502.4444444444444" y="143.55555555555554" width="71.77777777777777" height="71.77777777777777" fill="#ffffff"/><rect x="502.44" y="143.56" width="35.89" height="35.89" fill="#dae0fa"/><polygon points="538.33,143.56 538.33,179.45 502.44,179.45" fill="#cad3f8"/><rect x="538.33" y="143.56" width="35.89" height="35.89" fill="#4d6be8"/><polygon points="538.33,143.56 574.22,179.45 538.33,179.45" fill="#fff7f9"/><rect x="502.44" y="179.44" width="35.89" height="35.89" fill="#ffeff3"/><polygon points="502.44,179.44 538.33,179.44 502.44,215.32999999999998" fill="#ff567e"/><rect x="538.33" y="179.44" width="35.89" height="35.89" fill="#d7defa"/><polygon points="538.33,179.44 574.22,179.44 574.22,215.32999999999998" fill="#4060e6"/><rect x="574.22" y="143.56" width="71.78" height="71.78" fill="#ff91ab"/><polygon points="574.22,143.56 646,143.56 646,215.34" fill="#dae0fa"/><rect x="646" y="143.56" width="71.78" height="71.78" fill="#ff5d83"/><polygon points="646,143.56 717.78,143.56 717.78,215.34" fill="#94a6f1"/><rect x="717.78" y="143.56" width="71.78" height="71.78" fill="#3658e5"/><rect x="717.78" y="143.56" width="71.78" height="71.78" fill="#8fa2f0"/><rect x="0" y="215.33" width="71.78" height="71.78" fill="#ff87a4"/><path d="M 0 215.33 A 71.78 71.78 0 0 1 71.78 287.11 L 0 287.11L0 215.33" fill="#5370e9"/><rect x="71.78" y="215.33" width="71.78" height="71.78" fill="#2d51e4"/><path d="M 71.78 287.11 A 71.78 71.78 0 0 1  143.56 215.33 L 71.78 287.11 A 71.78 71.78 0 0 0 143.56 215.33" fill="#cfd8f9"/><rect x="143.55555555555554" y="215.33333333333331" width="71.77777777777777" height="71.77777777777777" fill="#ffffff"/><rect x="143.56" y="215.33" width="35.89" height="35.89" fill="#3658e5"/><polygon points="179.45,215.33 179.45,251.22000000000003 143.56,251.22000000000003" fill="#ff416f"/><rect x="179.44" y="215.33" width="35.89" height="35.89" fill="#506de8"/><polygon points="179.44,215.33 215.32999999999998,215.33 179.44,251.22000000000003" fill="#ff98b1"/><rect x="143.56" y="251.22" width="35.89" height="35.89" fill="#ff87a3"/><polygon points="143.56,251.22 179.45,251.22 179.45,287.11" fill="#e8ecfc"/><rect x="179.44" y="251.22" width="35.89" height="35.89" fill="#ffdae3"/><polygon points="179.44,251.22 215.32999999999998,287.11 179.44,287.11" fill="#ffc5d3"/><rect x="215.33" y="215.33" width="71.78" height="71.78" fill="#ffadc0"/><path d="M 215.33 287.11 A 71.78 71.78 0 0 0 287.11 215.33 L 215.33 215.33L215.33 287.11" fill="#7c92ee"/><rect x="287.1111111111111" y="215.33333333333331" width="71.77777777777777" height="71.77777777777777" fill="#ffffff"/><rect x="287.11" y="215.33" width="35.89" height="35.89" fill="#ff678b"/><path d="M 287.11 251.22000000000003 A 35.89 35.89 0 0 1  323 215.33 L 323 251.22000000000003L287.11 251.22000000000003" fill="#8196ef"/><rect x="323" y="215.33" width="35.89" height="35.89" fill="#ff4f79"/><path d="M 323 215.33 A 35.89 35.89 0 0 1 358.89 251.22000000000003 L 323 251.22000000000003L323 215.33" fill="#ffa4ba"/><rect x="287.11" y="251.22" width="35.89" height="35.89" fill="#dfe4fb"/><path d="M 287.11 251.22 A 35.89 35.89 0 0 0 323 287.11 L 323 251.22L287.11 251.22" fill="#ff85a2"/><rect x="323" y="251.22" width="35.89" height="35.89" fill="#ff3868"/><path d="M 323 287.11 A 35.89 35.89 0 0 0 358.89 251.22 L 323 251.22L323 287.11" fill="#ff84a1"/><rect x="358.88888888888886" y="215.33333333333331" width="71.77777777777777" height="71.77777777777777" fill="#ffffff"/><rect x="358.89" y="215.33" width="35.89" height="35.89" fill="#ff6086"/><path d="M 358.89 251.22000000000003 A 35.89 35.89 0 0 0 394.78 215.33 L 358.89 215.33L358.89 251.22000000000003" fill="#ff8aa6"/><rect x="394.78" y="215.33" width="35.89" height="35.89" fill="#5672e9"/><path d="M 394.78 215.33 A 35.89 35.89 0 0 0 430.66999999999996 251.22000000000003 L 430.66999999999996 215.33L394.78 215.33" fill="#e3e8fb"/><rect x="358.89" y="251.22" width="35.89" height="35.89" fill="#ffd8e2"/><path d="M 358.89 251.22 A 35.89 35.89 0 0 1 394.78 287.11 L 358.89 287.11L358.89 251.22" fill="#ff678b"/><rect x="394.78" y="251.22" width="35.89" height="35.89" fill="#bbc6f6"/><path d="M 394.78 287.11 A 35.89 35.89 0 0 1  430.66999999999996 251.22 L 430.66999999999996 287.11L394.78 287.11" fill="#2449e3"/><rect x="430.67" y="215.33" width="71.78" height="71.78" fill="#ffc4d2"/><rect x="430.67" y="215.33" width="71.78" height="71.78" fill="#ff5c82"/><rect x="502.4444444444444" y="215.33333333333331" width="71.77777777777777" height="71.77777777777777" fill="#ffffff"/><rect x="502.44" y="215.33" width="35.89" height="35.89" fill="#ffa1b7"/><path d="M 502.44 215.33 A 35.89 35.89 0 0 0 538.33 251.22000000000003 L 538.33 215.33L502.44 215.33" fill="#ff3a69"/><rect x="538.33" y="215.33" width="35.89" height="35.89" fill="#fcfdff"/><path d="M 538.33 251.22000000000003 A 35.89 35.89 0 0 0 574.22 215.33 L 538.33 215.33L538.33 251.22000000000003" fill="#889cf0"/><rect x="502.44" y="251.22" width="35.89" height="35.89" fill="#ff5981"/><path d="M 502.44 287.11 A 35.89 35.89 0 0 1  538.33 251.22 L 538.33 287.11L502.44 287.11" fill="#ffdce5"/><rect x="538.33" y="251.22" width="35.89" height="35.89" fill="#c5cff8"/><path d="M 538.33 251.22 A 35.89 35.89 0 0 1 574.22 287.11 L 538.33 287.11L538.33 251.22" fill="#d2d9f9"/><rect x="574.2222222222222" y="215.33333333333331" width="71.77777777777777" height="71.77777777777777" fill="#ffffff"/><rect x="574.22" y="215.33" width="35.89" height="35.89" fill="#9bacf2"/><path d="M 574.22 215.33 A 35.89 35.89 0 0 0 610.11 251.22000000000003 L 610.11 215.33L574.22 215.33" fill="#8ea1f0"/><rect x="610.11" y="215.33" width="35.89" height="35.89" fill="#ffa5ba"/><path d="M 610.11 251.22000000000003 A 35.89 35.89 0 0 0 646 215.33 L 610.11 215.33L610.11 251.22000000000003" fill="#d6ddfa"/><rect x="574.22" y="251.22" width="35.89" height="35.89" fill="#ffaec1"/><path d="M 574.22 287.11 A 35.89 35.89 0 0 1  610.11 251.22 L 610.11 287.11L574.22 287.11" fill="#d1d8f9"/><rect x="610.11" y="251.22" width="35.89" height="35.89" fill="#e5eafc"/><path d="M 610.11 251.22 A 35.89 35.89 0 0 1 646 287.11 L 610.11 287.11L610.11 251.22" fill="#c4cef7"/><rect x="646" y="215.33" width="71.78" height="71.78" fill="#ff678b"/><polygon points="717.78,215.33 717.78,287.11 646,287.11" fill="#ff3767"/><rect x="717.7777777777777" y="215.33333333333331" width="71.77777777777777" height="71.77777777777777" fill="#ffffff"/><rect x="717.78" y="215.33" width="35.89" height="35.89" fill="#e1e6fb"/><path d="M 717.78 215.33 A 35.89 35.89 0 0 0 753.67 251.22000000000003 L 753.67 215.33L717.78 215.33" fill="#ff5079"/><rect x="753.67" y="215.33" width="35.89" height="35.89" fill="#ff9bb3"/><path d="M 753.67 251.22000000000003 A 35.89 35.89 0 0 0 789.56 215.33 L 753.67 215.33L753.67 251.22000000000003" fill="#9eaef2"/><rect x="717.78" y="251.22" width="35.89" height="35.89" fill="#ff4772"/><path d="M 717.78 287.11 A 35.89 35.89 0 0 1  753.67 251.22 L 753.67 287.11L717.78 287.11" fill="#ffd0db"/><rect x="753.67" y="251.22" width="35.89" height="35.89" fill="#dce2fa"/><path d="M 753.67 251.22 A 35.89 35.89 0 0 1 789.56 287.11 L 753.67 287.11L753.67 251.22" fill="#ff99b1"/><rect x="0" y="287.1111111111111" width="71.77777777777777" height="71.77777777777777" fill="#ffffff"/><rect x="0" y="287.11" width="35.89" height="35.89" fill="#ff5d83"/><path d="M 0 323 A 35.89 35.89 0 0 0 35.89 287.11 L 0 287.11L0 323" fill="#dee3fb"/><rect x="35.89" y="287.11" width="35.89" height="35.89" fill="#ffeef2"/><path d="M 35.89 287.11 A 35.89 35.89 0 0 0 71.78 323 L 71.78 287.11L35.89 287.11" fill="#ffbccc"/><rect x="0" y="323" width="35.89" height="35.89" fill="#ffadc0"/><path d="M 0 323 A 35.89 35.89 0 0 1 35.89 358.89 L 0 358.89L0 323" fill="#f3f5fd"/><rect x="35.89" y="323" width="35.89" height="35.89" fill="#fffafb"/><path d="M 35.89 358.89 A 35.89 35.89 0 0 1  71.78 323 L 71.78 358.89L35.89 358.89" fill="#ff7092"/><rect x="71.77777777777777" y="287.1111111111111" width="71.77777777777777" height="71.77777777777777" fill="#ffffff"/><rect x="71.78" y="287.11" width="35.89" height="35.89" fill="#ffdae3"/><path d="M 71.78 323 A 35.89 35.89 0 0 1 107.67 287.11 L 107.67 296.08250000000004 A 26.9175 26.9175 0 0 0 80.7525 323" fill="#3f60e6"/><rect x="107.67" y="287.11" width="35.89" height="35.89" fill="#ff87a3"/><path d="M 107.67 287.11 A 35.89 35.89 0 0 1 143.56 323 L 134.5875 323 A 26.9175 26.9175 0 0 0 107.67 296.08250000000004" fill="#8599ef"/><rect x="71.78" y="323" width="35.89" height="35.89" fill="#ffb4c6"/><path d="M 71.78 323 A 35.89 35.89 0 0 0 107.67 358.89 L 107.67 349.9175 A 26.9175 26.9175 0 0 1 80.7525 323" fill="#b2bff5"/><rect x="107.67" y="323" width="35.89" height="35.89" fill="#ffd8e1"/><path d="M 107.67 358.89 A 35.89 35.89 0 0 0 143.56 323 L 134.5875 323 A 26.9175 26.9175 0 0 1 107.67 349.9175" fill="#8599ef"/><rect x="143.56" y="287.11" width="71.78" height="71.78" fill="#627deb"/><rect x="143.56" y="287.11" width="71.78" height="71.78" fill="#183fe1"/><rect x="215.33" y="287.11" width="71.78" height="71.78" fill="#728aed"/><rect x="215.33" y="287.11" width="71.78" height="71.78" fill="#ff557d"/><rect x="287.1111111111111" y="287.1111111111111" width="71.77777777777777" height="71.77777777777777" fill="#ffffff"/><rect x="287.11" y="287.11" width="35.89" height="35.89" fill="#ff8ba7"/><polygon points="323,287.11 323,323 287.11,323" fill="#eef1fd"/><rect x="323" y="287.11" width="35.89" height="35.89" fill="#ffeaef"/><polygon points="323,287.11 358.89,323 323,323" fill="#637deb"/><rect x="287.11" y="323" width="35.89" height="35.89" fill="#ffe6ec"/><polygon points="287.11,323 323,323 287.11,358.89" fill="#ffcad7"/><rect x="323" y="323" width="35.89" height="35.89" fill="#9dadf2"/><polygon points="323,323 358.89,323 358.89,358.89" fill="#5c77ea"/><rect x="358.88888888888886" y="287.1111111111111" width="71.77777777777777" height="71.77777777777777" fill="#ffffff"/><rect x="358.89" y="287.11" width="35.89" height="35.89" fill="#ff83a0"/><polygon points="394.78,287.11 394.78,323 358.89,323" fill="#5672e9"/><rect x="394.78" y="287.11" width="35.89" height="35.89" fill="#ffc9d6"/><polygon points="394.78,287.11 430.66999999999996,287.11 394.78,323" fill="#fff8fa"/><rect x="358.89" y="323" width="35.89" height="35.89" fill="#ff5d84"/><polygon points="358.89,323 394.78,323 394.78,358.89" fill="#ff4974"/><rect x="394.78" y="323" width="35.89" height="35.89" fill="#ffedf2"/><polygon points="394.78,323 430.66999999999996,358.89 394.78,358.89" fill="#ff90aa"/><rect x="430.67" y="287.11" width="71.78" height="71.78" fill="#ff7798"/><polygon points="430.67,287.11 502.45000000000005,358.89 430.67,358.89" fill="#4f6de8"/><rect x="502.4444444444444" y="287.1111111111111" width="71.77777777777777" height="71.77777777777777" fill="#ffffff"/><rect x="502.44" y="287.11" width="35.89" height="35.89" fill="#ffe1e8"/><polygon points="538.33,287.11 538.33,323 502.44,323" fill="#2b4ee3"/><rect x="538.33" y="287.11" width="35.89" height="35.89" fill="#ff3c6a"/><polygon points="538.33,287.11 574.22,287.11 538.33,323" fill="#acbaf4"/><rect x="502.44" y="323" width="35.89" height="35.89" fill="#4c6ae8"/><polygon points="502.44,323 538.33,323 538.33,358.89" fill="#ffc5d3"/><rect x="538.33" y="323" width="35.89" height="35.89" fill="#3c5de6"/><polygon points="538.33,323 574.22,358.89 538.33,358.89" fill="#e9edfc"/><rect x="574.22" y="287.11" width="71.78" height="71.78" fill="#ff6e90"/><path d="M 574.22 287.11 A 71.78 71.78 0 0 0 646 358.89 L 646 287.11L574.22 287.11" fill="#1940e1"/><rect x="646" y="287.11" width="71.78" height="71.78" fill="#ffedf2"/><polygon points="646,287.11 717.78,287.11 646,358.89" fill="#8ea1f0"/><rect x="717.7777777777777" y="287.1111111111111" width="71.77777777777777" height="71.77777777777777" fill="#ffffff"/><rect x="717.78" y="287.11" width="35.89" height="35.89" fill="#e6ebfc"/><polygon points="753.67,287.11 753.67,323 717.78,323" fill="#788eed"/><rect x="753.67" y="287.11" width="35.89" height="35.89" fill="#5773e9"/><polygon points="753.67,287.11 789.56,287.11 753.67,323" fill="#1c43e2"/><rect x="717.78" y="323" width="35.89" height="35.89" fill="#1940e1"/><polygon points="717.78,323 753.67,323 753.67,358.89" fill="#3e5fe6"/><rect x="753.67" y="323" width="35.89" height="35.89" fill="#8196ef"/><polygon points="753.67,323 789.56,358.89 753.67,358.89" fill="#fcfdff"/><rect x="0" y="358.89" width="71.78" height="71.78" fill="#4867e7"/><path d="M 0 358.89 A 71.78 71.78 0 0 1  71.78 430.66999999999996 L 0 358.89 A 71.78 71.78 0 0 0 71.78 430.66999999999996" fill="#fafbfe"/><rect x="71.78" y="358.89" width="71.78" height="71.78" fill="#ff6489"/><rect x="71.78" y="358.89" width="71.78" height="71.78" fill="#ffa1b7"/><rect x="143.56" y="358.89" width="71.78" height="71.78" fill="#ffdee6"/><polygon points="143.56,358.89 215.34,430.66999999999996 143.56,430.66999999999996" fill="#4161e6"/><rect x="215.33" y="358.89" width="71.78" height="71.78" fill="#c6cff8"/><polygon points="287.11,358.89 287.11,430.66999999999996 215.33,430.66999999999996" fill="#ffdfe6"/><rect x="287.1111111111111" y="358.88888888888886" width="71.77777777777777" height="71.77777777777777" fill="#ffffff"/><rect x="287.11" y="358.89" width="35.89" height="35.89" fill="#2c50e4"/><path d="M 287.11 358.89 A 35.89 35.89 0 0 1 323 394.78 L 287.11 394.78L287.11 358.89" fill="#ff5b82"/><rect x="323" y="358.89" width="35.89" height="35.89" fill="#ff5f85"/><path d="M 323 394.78 A 35.89 35.89 0 0 1  358.89 358.89 L 358.89 394.78L323 394.78" fill="#3154e4"/><rect x="287.11" y="394.78" width="35.89" height="35.89" fill="#ff547d"/><path d="M 287.11 430.66999999999996 A 35.89 35.89 0 0 0 323 394.78 L 287.11 394.78L287.11 430.66999999999996" fill="#91a4f1"/><rect x="323" y="394.78" width="35.89" height="35.89" fill="#395ae5"/><path d="M 323 394.78 A 35.89 35.89 0 0 0 358.89 430.66999999999996 L 358.89 394.78L323 394.78" fill="#c9d2f8"/><rect x="358.89" y="358.89" width="71.78" height="71.78" fill="#f0f2fd"/><path d="M 358.89 358.89 A 71.78 71.78 0 0 1  430.66999999999996 430.66999999999996 L 358.89 358.89 A 71.78 71.78 0 0 0 430.66999999999996 430.66999999999996" fill="#fff9fa"/><rect x="430.67" y="358.89" width="71.78" height="71.78" fill="#ffd3dd"/><path d="M 430.67 430.66999999999996 A 71.78 71.78 0 0 1  502.45000000000005 358.89 L 502.45000000000005 430.66999999999996L430.67 430.66999999999996" fill="#ff85a2"/><rect x="502.44" y="358.89" width="71.78" height="71.78" fill="#92a4f1"/><polygon points="574.22,358.89 574.22,430.66999999999996 502.44,430.66999999999996" fill="#3154e4"/><rect x="574.2222222222222" y="358.88888888888886" width="71.77777777777777" height="71.77777777777777" fill="#ffffff"/><rect x="574.22" y="358.89" width="35.89" height="35.89" fill="#ffc9d6"/><polygon points="610.11,358.89 610.11,394.78 574.22,394.78" fill="#9faff3"/><rect x="610.11" y="358.89" width="35.89" height="35.89" fill="#506ee8"/><polygon points="610.11,358.89 646,394.78 610.11,394.78" fill="#6781eb"/><rect x="574.22" y="394.78" width="35.89" height="35.89" fill="#ff577f"/><polygon points="574.22,394.78 610.11,394.78 574.22,430.66999999999996" fill="#ffacc0"/><rect x="610.11" y="394.78" width="35.89" height="35.89" fill="#fff4f6"/><polygon points="610.11,394.78 646,394.78 646,430.66999999999996" fill="#ffe0e7"/><rect x="646" y="358.88888888888886" width="71.77777777777777" height="71.77777777777777" fill="#ffffff"/><rect x="646" y="358.89" width="35.89" height="35.89" fill="#fffafb"/><polygon points="681.89,358.89 681.89,394.78 646,394.78" fill="#4363e7"/><rect x="681.89" y="358.89" width="35.89" height="35.89" fill="#fff4f6"/><polygon points="681.89,358.89 717.78,358.89 681.89,394.78" fill="#5d78ea"/><rect x="646" y="394.78" width="35.89" height="35.89" fill="#ffc0cf"/><polygon points="646,394.78 681.89,394.78 681.89,430.66999999999996" fill="#ffa7bc"/><rect x="681.89" y="394.78" width="35.89" height="35.89" fill="#b1bef5"/><polygon points="681.89,394.78 717.78,430.66999999999996 681.89,430.66999999999996" fill="#294ee3"/><rect x="717.78" y="358.89" width="71.78" height="71.78" fill="#cdd5f9"/><polygon points="717.78,358.89 789.56,430.66999999999996 717.78,430.66999999999996" fill="#ff668b"/><rect x="0" y="430.67" width="71.78" height="71.78" fill="#ff6388"/><polygon points="0,430.67 71.78,430.67 71.78,502.45000000000005" fill="#c1cbf7"/><rect x="71.78" y="430.67" width="71.78" height="71.78" fill="#3e5fe6"/><polygon points="71.78,430.67 143.56,502.45000000000005 71.78,502.45000000000005" fill="#ff9ab2"/><rect x="143.56" y="430.67" width="71.78" height="71.78" fill="#ffcbd7"/><path d="M 143.56 502.45000000000005 A 71.78 71.78 0 0 1  215.34 430.67 L 215.34 502.45000000000005L143.56 502.45000000000005" fill="#c9d2f8"/><rect x="215.33333333333331" y="430.66666666666663" width="71.77777777777777" height="71.77777777777777" fill="#ffffff"/><rect x="215.33" y="430.67" width="35.89" height="35.89" fill="#ff688c"/><circle cx="233.275" cy="448.615" r="17.945" fill="#ffbfce"/><rect x="251.22" y="430.67" width="35.89" height="35.89" fill="#ffebf0"/><rect x="251.22" y="430.67" width="35.89" height="35.89" fill="#294de3"/><rect x="215.33" y="466.56" width="35.89" height="35.89" fill="#98a9f2"/><circle cx="233.275" cy="484.505" r="17.945" fill="#6882eb"/><rect x="251.22" y="466.56" width="35.89" height="35.89" fill="#798fee"/><rect x="251.22" y="466.56" width="35.89" height="35.89" fill="#c1ccf7"/><rect x="287.11" y="430.67" width="71.78" height="71.78" fill="#8c9ff0"/><polygon points="358.89,430.67 358.89,502.45000000000005 287.11,502.45000000000005" fill="#7e94ee"/><rect x="358.89" y="430.67" width="71.78" height="71.78" fill="#ffa6bb"/><path d="M 358.89 430.67 A 71.78 71.78 0 0 1 430.66999999999996 502.45000000000005 L 358.89 502.45000000000005L358.89 430.67" fill="#274ce3"/><rect x="430.67" y="430.67" width="71.78" height="71.78" fill="#3c5de6"/><path d="M 430.67 430.67 A 71.78 71.78 0 0 0 502.45000000000005 502.45000000000005 L 502.45000000000005 430.67L430.67 430.67" fill="#cbd4f8"/><rect x="502.44" y="430.67" width="71.78" height="71.78" fill="#ff678b"/><polygon points="502.44,430.67 574.22,430.67 502.44,502.45000000000005" fill="#ff93ac"/><rect x="574.2222222222222" y="430.66666666666663" width="71.77777777777777" height="71.77777777777777" fill="#ffffff"/><rect x="574.22" y="430.67" width="35.89" height="35.89" fill="#a7b5f4"/><polygon points="610.11,430.67 610.11,466.56 574.22,466.56" fill="#758ced"/><rect x="610.11" y="430.67" width="35.89" height="35.89" fill="#2d51e4"/><polygon points="610.11,430.67 646,430.67 610.11,466.56" fill="#fff1f4"/><rect x="574.22" y="466.56" width="35.89" height="35.89" fill="#ff3e6c"/><polygon points="574.22,466.56 610.11,466.56 610.11,502.45" fill="#ffd6e0"/><rect x="610.11" y="466.56" width="35.89" height="35.89" fill="#ff688c"/><polygon points="610.11,466.56 646,502.45 610.11,502.45" fill="#fefeff"/><rect x="646" y="430.66666666666663" width="71.77777777777777" height="71.77777777777777" fill="#ffffff"/><rect x="646" y="430.67" width="35.89" height="35.89" fill="#ffc1d0"/><circle cx="663.945" cy="448.615" r="17.945" fill="#ced6f9"/><rect x="681.89" y="430.67" width="35.89" height="35.89" fill="#96a8f1"/><rect x="681.89" y="430.67" width="35.89" height="35.89" fill="#e9edfc"/><rect x="646" y="466.56" width="35.89" height="35.89" fill="#a0b0f3"/><circle cx="663.945" cy="484.505" r="17.945" fill="#274ce3"/><rect x="681.89" y="466.56" width="35.89" height="35.89" fill="#afbcf5"/><rect x="681.89" y="466.56" width="35.89" height="35.89" fill="#ffa4ba"/><rect x="717.7777777777777" y="430.66666666666663" width="71.77777777777777" height="71.77777777777777" fill="#ffffff"/><rect x="717.78" y="430.67" width="35.89" height="35.89" fill="#fffdfd"/><polygon points="753.67,430.67 753.67,466.56 717.78,466.56" fill="#ffb1c4"/><rect x="753.67" y="430.67" width="35.89" height="35.89" fill="#d3daf9"/><polygon points="753.67,430.67 789.56,466.56 753.67,466.56" fill="#ff6a8d"/><rect x="717.78" y="466.56" width="35.89" height="35.89" fill="#ff517a"/><polygon points="717.78,466.56 753.67,466.56 717.78,502.45" fill="#ff3767"/><rect x="753.67" y="466.56" width="35.89" height="35.89" fill="#a5b4f3"/><polygon points="753.67,466.56 789.56,466.56 789.56,502.45" fill="#ff517a"/><rect x="0" y="502.4444444444444" width="71.77777777777777" height="71.77777777777777" fill="#ffffff"/><rect x="0" y="502.44" width="35.89" height="35.89" fill="#1f44e2"/><path d="M 0 538.33 A 35.89 35.89 0 0 1 35.89 502.44 L 35.89 511.4125 A 26.9175 26.9175 0 0 0 8.9725 538.33" fill="#ffa5ba"/><rect x="35.89" y="502.44" width="35.89" height="35.89" fill="#a1b1f3"/><path d="M 35.89 502.44 A 35.89 35.89 0 0 1 71.78 538.33 L 62.807500000000005 538.33 A 26.9175 26.9175 0 0 0 35.89 511.4125" fill="#e3e7fb"/><rect x="0" y="538.33" width="35.89" height="35.89" fill="#ffbdcc"/><path d="M 0 538.33 A 35.89 35.89 0 0 0 35.89 574.22 L 35.89 565.2475000000001 A 26.9175 26.9175 0 0 1 8.9725 538.33" fill="#4362e7"/><rect x="35.89" y="538.33" width="35.89" height="35.89" fill="#ff90ab"/><path d="M 35.89 574.22 A 35.89 35.89 0 0 0 71.78 538.33 L 62.807500000000005 538.33 A 26.9175 26.9175 0 0 1 35.89 565.2475000000001" fill="#9aabf2"/><rect x="71.77777777777777" y="502.4444444444444" width="71.77777777777777" height="71.77777777777777" fill="#ffffff"/><rect x="71.78" y="502.44" width="35.89" height="35.89" fill="#4766e7"/><circle cx="89.725" cy="520.385" r="17.945" fill="#ffcfda"/><rect x="107.67" y="502.44" width="35.89" height="35.89" fill="#ffedf1"/><rect x="107.67" y="502.44" width="35.89" height="35.89" fill="#d5dcf9"/><rect x="71.78" y="538.33" width="35.89" height="35.89" fill="#7d93ee"/><circle cx="89.725" cy="556.2750000000001" r="17.945" fill="#ff4974"/><rect x="107.67" y="538.33" width="35.89" height="35.89" fill="#778eed"/><rect x="107.67" y="538.33" width="35.89" height="35.89" fill="#a8b7f4"/><rect x="143.56" y="502.44" width="71.78" height="71.78" fill="#1c43e2"/><path d="M 143.56 574.22 A 71.78 71.78 0 0 1  215.34 502.44 L 215.34 574.22L143.56 574.22" fill="#e4e8fb"/><rect x="215.33333333333331" y="502.4444444444444" width="71.77777777777777" height="71.77777777777777" fill="#ffffff"/><rect x="215.33" y="502.44" width="35.89" height="35.89" fill="#ff3f6d"/><polygon points="251.22000000000003,502.44 251.22000000000003,538.33 215.33,538.33" fill="#91a4f1"/><rect x="251.22" y="502.44" width="35.89" height="35.89" fill="#ff91ab"/><polygon points="251.22,502.44 287.11,502.44 251.22,538.33" fill="#ff6288"/><rect x="215.33" y="538.33" width="35.89" height="35.89" fill="#aebcf5"/><polygon points="215.33,538.33 251.22000000000003,538.33 251.22000000000003,574.22" fill="#c7d0f8"/><rect x="251.22" y="538.33" width="35.89" height="35.89" fill="#ffe6ec"/><polygon points="251.22,538.33 287.11,574.22 251.22,574.22" fill="#ff89a5"/><rect x="287.11" y="502.44" width="71.78" height="71.78" fill="#7f95ee"/><path d="M 287.11 502.44 A 71.78 71.78 0 0 1 358.89 574.22 L 287.11 574.22L287.11 502.44" fill="#ff89a5"/><rect x="358.89" y="502.44" width="71.78" height="71.78" fill="#d7defa"/><polygon points="358.89,502.44 430.66999999999996,574.22 358.89,574.22" fill="#fff8fa"/><rect x="430.66666666666663" y="502.4444444444444" width="71.77777777777777" height="71.77777777777777" fill="#ffffff"/><rect x="430.67" y="502.44" width="35.89" height="35.89" fill="#ffe6ec"/><path d="M 430.67 502.44 A 35.89 35.89 0 0 0 466.56 538.33 L 466.56 502.44L430.67 502.44" fill="#bac6f6"/><rect x="466.56" y="502.44" width="35.89" height="35.89" fill="#ffdfe6"/><path d="M 466.56 538.33 A 35.89 35.89 0 0 0 502.45 502.44 L 466.56 502.44L466.56 538.33" fill="#eef1fd"/><rect x="430.67" y="538.33" width="35.89" height="35.89" fill="#ff8aa6"/><path d="M 430.67 574.22 A 35.89 35.89 0 0 1  466.56 538.33 L 466.56 574.22L430.67 574.22" fill="#ffd2dd"/><rect x="466.56" y="538.33" width="35.89" height="35.89" fill="#ff3968"/><path d="M 466.56 538.33 A 35.89 35.89 0 0 1 502.45 574.22 L 466.56 574.22L466.56 538.33" fill="#516ee8"/><rect x="502.4444444444444" y="502.4444444444444" width="71.77777777777777" height="71.77777777777777" fill="#ffffff"/><rect x="502.44" y="502.44" width="35.89" height="35.89" fill="#ff8ca7"/><path d="M 502.44 538.33 A 35.89 35.89 0 0 1 538.33 502.44 L 538.33 511.4125 A 26.9175 26.9175 0 0 0 511.4125 538.33" fill="#bec9f7"/><rect x="538.33" y="502.44" width="35.89" height="35.89" fill="#ffd5df"/><path d="M 538.33 502.44 A 35.89 35.89 0 0 1 574.22 538.33 L 565.2475000000001 538.33 A 26.9175 26.9175 0 0 0 538.33 511.4125" fill="#d5dcf9"/><rect x="502.44" y="538.33" width="35.89" height="35.89" fill="#b9c5f6"/><path d="M 502.44 538.33 A 35.89 35.89 0 0 0 538.33 574.22 L 538.33 565.2475000000001 A 26.9175 26.9175 0 0 1 511.4125 538.33" fill="#ffe0e8"/><rect x="538.33" y="538.33" width="35.89" height="35.89" fill="#6b84ec"/><path d="M 538.33 574.22 A 35.89 35.89 0 0 0 574.22 538.33 L 565.2475000000001 538.33 A 26.9175 26.9175 0 0 1 538.33 565.2475000000001" fill="#f0f2fd"/><rect x="574.22" y="502.44" width="71.78" height="71.78" fill="#ffdee6"/><path d="M 574.22 502.44 A 71.78 71.78 0 0 1  646 574.22 L 574.22 502.44 A 71.78 71.78 0 0 0 646 574.22" fill="#e3e8fb"/><rect x="646" y="502.44" width="71.78" height="71.78" fill="#b2bff5"/><path d="M 646 502.44 A 71.78 71.78 0 0 1 717.78 574.22 L 646 574.22L646 502.44" fill="#d8defa"/><rect x="717.7777777777777" y="502.4444444444444" width="71.77777777777777" height="71.77777777777777" fill="#ffffff"/><rect x="717.78" y="502.44" width="35.89" height="35.89" fill="#2247e2"/><polygon points="753.67,502.44 753.67,538.33 717.78,538.33" fill="#2247e2"/><rect x="753.67" y="502.44" width="35.89" height="35.89" fill="#99aaf2"/><polygon points="753.67,502.44 789.56,502.44 753.67,538.33" fill="#ffe0e7"/><rect x="717.78" y="538.33" width="35.89" height="35.89" fill="#758ced"/><polygon points="717.78,538.33 753.67,538.33 753.67,574.22" fill="#2045e2"/><rect x="753.67" y="538.33" width="35.89" height="35.89" fill="#ffe1e8"/><polygon points="753.67,538.33 789.56,574.22 753.67,574.22" fill="#2348e2"/><rect x="0" y="574.22" width="71.78" height="71.78" fill="#c9d2f8"/><path d="M 0 646 A 71.78 71.78 0 0 1  71.78 574.22 L 0 646 A 71.78 71.78 0 0 0 71.78 574.22" fill="#ffaabe"/><rect x="71.77777777777777" y="574.2222222222222" width="71.77777777777777" height="71.77777777777777" fill="#ffffff"/><rect x="71.78" y="574.22" width="35.89" height="35.89" fill="#ff6e91"/><circle cx="89.725" cy="592.1650000000001" r="17.945" fill="#ffd4de"/><rect x="107.67" y="574.22" width="35.89" height="35.89" fill="#e0e5fb"/><rect x="107.67" y="574.22" width="35.89" height="35.89" fill="#ff7092"/><rect x="71.78" y="610.11" width="35.89" height="35.89" fill="#ffd5df"/><circle cx="89.725" cy="628.0550000000001" r="17.945" fill="#ff7797"/><rect x="107.67" y="610.11" width="35.89" height="35.89" fill="#a5b4f3"/><rect x="107.67" y="610.11" width="35.89" height="35.89" fill="#a7b6f4"/><rect x="143.56" y="574.22" width="71.78" height="71.78" fill="#ff7d9c"/><polygon points="143.56,574.22 215.34,646 143.56,646" fill="#ff88a5"/><rect x="215.33" y="574.22" width="71.78" height="71.78" fill="#4d6be8"/><polygon points="287.11,574.22 287.11,646 215.33,646" fill="#798fee"/><rect x="287.11" y="574.22" width="71.78" height="71.78" fill="#ffd3dd"/><polygon points="358.89,574.22 358.89,646 287.11,646" fill="#6680eb"/><rect x="358.89" y="574.22" width="71.78" height="71.78" fill="#ff7395"/><polygon points="358.89,574.22 430.66999999999996,646 358.89,646" fill="#c5cef7"/><rect x="430.66666666666663" y="574.2222222222222" width="71.77777777777777" height="71.77777777777777" fill="#ffffff"/><rect x="430.67" y="574.22" width="35.89" height="35.89" fill="#ff9eb5"/><polygon points="466.56,574.22 466.56,610.11 430.67,610.11" fill="#7d93ee"/><rect x="466.56" y="574.22" width="35.89" height="35.89" fill="#ff3a69"/><polygon points="466.56,574.22 502.45,610.11 466.56,610.11" fill="#ff3a69"/><rect x="430.67" y="610.11" width="35.89" height="35.89" fill="#b1bef5"/><polygon points="430.67,610.11 466.56,610.11 430.67,646" fill="#ff3f6c"/><rect x="466.56" y="610.11" width="35.89" height="35.89" fill="#ff6388"/><polygon points="466.56,610.11 502.45,610.11 502.45,646" fill="#ffc8d5"/><rect x="502.44" y="574.22" width="71.78" height="71.78" fill="#7c92ee"/><rect x="502.44" y="574.22" width="71.78" height="71.78" fill="#3254e4"/><rect x="574.2222222222222" y="574.2222222222222" width="71.77777777777777" height="71.77777777777777" fill="#ffffff"/><rect x="574.22" y="574.22" width="35.89" height="35.89" fill="#627ceb"/><polygon points="610.11,574.22 610.11,610.11 574.22,610.11" fill="#ff5f85"/><rect x="610.11" y="574.22" width="35.89" height="35.89" fill="#98aaf2"/><polygon points="610.11,574.22 646,574.22 610.11,610.11" fill="#b0bef5"/><rect x="574.22" y="610.11" width="35.89" height="35.89" fill="#ff6186"/><polygon points="574.22,610.11 610.11,610.11 610.11,646" fill="#ff89a5"/><rect x="610.11" y="610.11" width="35.89" height="35.89" fill="#ffb0c3"/><polygon points="610.11,610.11 646,646 610.11,646" fill="#ffabbf"/><rect x="646" y="574.2222222222222" width="71.77777777777777" height="71.77777777777777" fill="#ffffff"/><rect x="646" y="574.22" width="35.89" height="35.89" fill="#ff95ae"/><path d="M 646 574.22 A 35.89 35.89 0 0 1 681.89 610.11 L 646 610.11L646 574.22" fill="#647eeb"/><rect x="681.89" y="574.22" width="35.89" height="35.89" fill="#ff87a4"/><path d="M 681.89 610.11 A 35.89 35.89 0 0 1  717.78 574.22 L 717.78 610.11L681.89 610.11" fill="#7088ec"/><rect x="646" y="610.11" width="35.89" height="35.89" fill="#768ded"/><path d="M 646 646 A 35.89 35.89 0 0 0 681.89 610.11 L 646 610.11L646 646" fill="#7088ec"/><rect x="681.89" y="610.11" width="35.89" height="35.89" fill="#ff99b1"/><path d="M 681.89 610.11 A 35.89 35.89 0 0 0 717.78 646 L 717.78 610.11L681.89 610.11" fill="#ffa1b7"/><rect x="717.7777777777777" y="574.2222222222222" width="71.77777777777777" height="71.77777777777777" fill="#ffffff"/><rect x="717.78" y="574.22" width="35.89" height="35.89" fill="#627ceb"/><polygon points="753.67,574.22 753.67,610.11 717.78,610.11" fill="#183fe1"/><rect x="753.67" y="574.22" width="35.89" height="35.89" fill="#c4cef7"/><polygon points="753.67,574.22 789.56,610.11 753.67,610.11" fill="#d7defa"/><rect x="717.78" y="610.11" width="35.89" height="35.89" fill="#d9dffa"/><polygon points="717.78,610.11 753.67,610.11 717.78,646" fill="#899df0"/><rect x="753.67" y="610.11" width="35.89" height="35.89" fill="#264be3"/><polygon points="753.67,610.11 789.56,610.11 789.56,646" fill="#d4dbf9"/></g></svg>